name ../AP_Laxity/ap_45.mot
datacolumns   7
datarows 50
range   21.00000000 21.49000000
cursor 1.0 1.0 0.0
keys m_key
wrap
enforce_loops no
enforce_constraints no
calc_derivatives -1.000000
event_color 0.000000 0.000000 0.000000
endheader
            time femur_r_force_vx femur_r_force_vy femur_r_force_vz femur_r_force_px femur_r_force_py femur_r_force_pz 
     21.00000000      62.30183694     -62.30183694       0.00000000      -0.05123681      -0.49427285       0.00000000 
     21.01000000      62.42541783     -62.42541783       0.00000000      -0.05123681      -0.49427285       0.00000000 
     21.02000000      62.54820452     -62.54820452       0.00000000      -0.05123681      -0.49427285       0.00000000 
     21.03000000      62.67019340     -62.67019340       0.00000000      -0.05123681      -0.49427285       0.00000000 
     21.04000000      62.79138089     -62.79138089       0.00000000      -0.05123681      -0.49427285       0.00000000 
     21.05000000      62.91176345     -62.91176345       0.00000000      -0.05123681      -0.49427285       0.00000000 
     21.06000000      63.03133753     -63.03133753       0.00000000      -0.05123681      -0.49427285       0.00000000 
     21.07000000      63.15009963     -63.15009963       0.00000000      -0.05123681      -0.49427285       0.00000000 
     21.08000000      63.26804627     -63.26804627       0.00000000      -0.05123681      -0.49427285       0.00000000 
     21.09000000      63.38517397     -63.38517397       0.00000000      -0.05123681      -0.49427285       0.00000000 
     21.10000000      63.50147932     -63.50147932       0.00000000      -0.05123681      -0.49427285       0.00000000 
     21.11000000      63.61695889     -63.61695889       0.00000000      -0.05123681      -0.49427285       0.00000000 
     21.12000000      63.73160930     -63.73160930       0.00000000      -0.05123681      -0.49427285       0.00000000 
     21.13000000      63.84542718     -63.84542718       0.00000000      -0.05123681      -0.49427285       0.00000000 
     21.14000000      63.95840920     -63.95840920       0.00000000      -0.05123681      -0.49427285       0.00000000 
     21.15000000      64.07055204     -64.07055204       0.00000000      -0.05123681      -0.49427285       0.00000000 
     21.16000000      64.18185240     -64.18185240       0.00000000      -0.05123681      -0.49427285       0.00000000 
     21.17000000      64.29230703     -64.29230703       0.00000000      -0.05123681      -0.49427285       0.00000000 
     21.18000000      64.40191269     -64.40191269       0.00000000      -0.05123681      -0.49427285       0.00000000 
     21.19000000      64.51066615     -64.51066615       0.00000000      -0.05123681      -0.49427285       0.00000000 
     21.20000000      64.61856422     -64.61856422       0.00000000      -0.05123681      -0.49427285       0.00000000 
     21.21000000      64.72560375     -64.72560375       0.00000000      -0.05123681      -0.49427285       0.00000000 
     21.22000000      64.83178159     -64.83178159       0.00000000      -0.05123681      -0.49427285       0.00000000 
     21.23000000      64.93709463     -64.93709463       0.00000000      -0.05123681      -0.49427285       0.00000000 
     21.24000000      65.04153977     -65.04153977       0.00000000      -0.05123681      -0.49427285       0.00000000 
     21.25000000      65.14511396     -65.14511396       0.00000000      -0.05123681      -0.49427285       0.00000000 
     21.26000000      65.24781414     -65.24781414       0.00000000      -0.05123681      -0.49427285       0.00000000 
     21.27000000      65.34963732     -65.34963732       0.00000000      -0.05123681      -0.49427285       0.00000000 
     21.28000000      65.45058050     -65.45058050       0.00000000      -0.05123681      -0.49427285       0.00000000 
     21.29000000      65.55064072     -65.55064072       0.00000000      -0.05123681      -0.49427285       0.00000000 
     21.30000000      65.64981505     -65.64981505       0.00000000      -0.05123681      -0.49427285       0.00000000 
     21.31000000      65.74810057     -65.74810057       0.00000000      -0.05123681      -0.49427285       0.00000000 
     21.32000000      65.84549440     -65.84549440       0.00000000      -0.05123681      -0.49427285       0.00000000 
     21.33000000      65.94199369     -65.94199369       0.00000000      -0.05123681      -0.49427285       0.00000000 
     21.34000000      66.03759560     -66.03759560       0.00000000      -0.05123681      -0.49427285       0.00000000 
     21.35000000      66.13229734     -66.13229734       0.00000000      -0.05123681      -0.49427285       0.00000000 
     21.36000000      66.22609611     -66.22609611       0.00000000      -0.05123681      -0.49427285       0.00000000 
     21.37000000      66.31898917     -66.31898917       0.00000000      -0.05123681      -0.49427285       0.00000000 
     21.38000000      66.41097379     -66.41097379       0.00000000      -0.05123681      -0.49427285       0.00000000 
     21.39000000      66.50204727     -66.50204727       0.00000000      -0.05123681      -0.49427285       0.00000000 
     21.40000000      66.59220695     -66.59220695       0.00000000      -0.05123681      -0.49427285       0.00000000 
     21.41000000      66.68145018     -66.68145018       0.00000000      -0.05123681      -0.49427285       0.00000000 
     21.42000000      66.76977433     -66.76977433       0.00000000      -0.05123681      -0.49427285       0.00000000 
     21.43000000      66.85717683     -66.85717683       0.00000000      -0.05123681      -0.49427285       0.00000000 
     21.44000000      66.94365509     -66.94365509       0.00000000      -0.05123681      -0.49427285       0.00000000 
     21.45000000      67.02920659     -67.02920659       0.00000000      -0.05123681      -0.49427285       0.00000000 
     21.46000000      67.11382882     -67.11382882       0.00000000      -0.05123681      -0.49427285       0.00000000 
     21.47000000      67.19751929     -67.19751929       0.00000000      -0.05123681      -0.49427285       0.00000000 
     21.48000000      67.28027555     -67.28027555       0.00000000      -0.05123681      -0.49427285       0.00000000 
     21.49000000      67.36209517     -67.36209517       0.00000000      -0.05123681      -0.49427285       0.00000000 
